<?xml version="1.0" encoding="utf-8" standalone="no"?>
<!DOCTYPE svg PUBLIC "-//W3C//DTD SVG 1.1//EN"
  "http://www.w3.org/Graphics/SVG/1.1/DTD/svg11.dtd">
<svg xmlns:xlink="http://www.w3.org/1999/xlink" width="460.8pt" height="345.6pt" viewBox="0 0 460.8 345.6" xmlns="http://www.w3.org/2000/svg" version="1.1">
 <metadata>
  <rdf:RDF xmlns:dc="http://purl.org/dc/elements/1.1/" xmlns:cc="http://creativecommons.org/ns#" xmlns:rdf="http://www.w3.org/1999/02/22-rdf-syntax-ns#">
   <cc:Work>
    <dc:type rdf:resource="http://purl.org/dc/dcmitype/StillImage"/>
    <dc:date>2023-12-05T13:46:10.198236</dc:date>
    <dc:format>image/svg+xml</dc:format>
    <dc:creator>
     <cc:Agent>
      <dc:title>Matplotlib v3.5.3, https://matplotlib.org/</dc:title>
     </cc:Agent>
    </dc:creator>
   </cc:Work>
  </rdf:RDF>
 </metadata>
 <defs>
  <style type="text/css">*{stroke-linejoin: round; stroke-linecap: butt}</style>
 </defs>
 <g id="figure_1">
  <g id="patch_1">
   <path d="M 0 345.6 
L 460.8 345.6 
L 460.8 0 
L 0 0 
z
" style="fill: #ffffff"/>
  </g>
  <g id="axes_1">
   <g id="patch_2">
    <path d="M 57.6 307.584 
L 414.72 307.584 
L 414.72 41.472 
L 57.6 41.472 
z
" style="fill: #ffffff"/>
   </g>
   <g id="PolyCollection_1">
    <path d="M 73.832727 69.984 
L 73.832727 307.584 
L 76.757543 307.584 
L 79.682359 307.584 
L 82.607174 307.584 
L 85.53199 307.584 
L 88.456806 307.584 
L 91.381622 307.584 
L 94.306437 307.584 
L 97.231253 307.584 
L 100.156069 307.584 
L 103.080885 307.584 
L 106.0057 307.584 
L 108.930516 307.584 
L 111.855332 307.584 
L 114.780147 307.584 
L 117.704963 307.584 
L 120.629779 307.584 
L 123.554595 307.584 
L 126.47941 307.584 
L 129.404226 307.584 
L 132.329042 307.584 
L 135.253857 307.584 
L 138.178673 307.584 
L 141.103489 307.584 
L 144.028305 307.584 
L 146.95312 307.584 
L 149.877936 307.584 
L 152.802752 307.584 
L 155.727568 307.584 
L 158.652383 307.584 
L 161.577199 307.584 
L 164.502015 307.584 
L 167.42683 307.584 
L 170.351646 307.584 
L 173.276462 307.584 
L 176.201278 307.584 
L 179.126093 307.584 
L 182.050909 307.584 
L 184.975725 307.584 
L 187.900541 307.584 
L 190.825356 307.584 
L 193.750172 307.584 
L 196.674988 307.584 
L 199.599803 307.584 
L 202.524619 307.584 
L 205.449435 307.584 
L 208.374251 307.584 
L 211.299066 307.584 
L 214.223882 307.584 
L 217.148698 307.584 
L 220.073514 307.584 
L 222.998329 307.584 
L 225.923145 307.584 
L 228.847961 307.584 
L 231.772776 307.584 
L 234.697592 307.584 
L 237.622408 307.584 
L 240.547224 307.584 
L 243.472039 307.584 
L 246.396855 307.584 
L 249.321671 307.584 
L 252.246486 307.584 
L 255.171302 307.584 
L 258.096118 307.584 
L 261.020934 307.584 
L 263.945749 307.584 
L 266.870565 307.584 
L 269.795381 307.584 
L 272.720197 307.584 
L 275.645012 307.584 
L 278.569828 307.584 
L 281.494644 307.584 
L 284.419459 307.584 
L 287.344275 307.584 
L 290.269091 307.584 
L 293.193907 307.584 
L 296.118722 307.584 
L 299.043538 307.584 
L 301.968354 307.584 
L 304.89317 307.584 
L 307.817985 307.584 
L 310.742801 307.584 
L 313.667617 307.584 
L 316.592432 307.584 
L 319.517248 307.584 
L 322.442064 307.584 
L 325.36688 307.584 
L 328.291695 307.584 
L 331.216511 307.584 
L 334.141327 307.584 
L 337.066143 307.584 
L 339.990958 307.584 
L 342.915774 307.584 
L 345.84059 307.584 
L 348.765405 307.584 
L 351.690221 307.584 
L 354.615037 307.584 
L 357.539853 307.584 
L 360.464668 307.584 
L 363.389484 307.584 
L 366.3143 307.584 
L 369.239115 307.584 
L 372.163931 307.584 
L 375.088747 307.584 
L 378.013563 307.584 
L 380.938378 307.584 
L 383.863194 307.584 
L 386.78801 307.584 
L 389.712826 307.584 
L 392.637641 307.584 
L 395.562457 307.584 
L 398.487273 307.584 
L 398.487273 307.584 
L 398.487273 307.584 
L 395.562457 307.584 
L 392.637641 307.584 
L 389.712826 307.584 
L 386.78801 307.584 
L 383.863194 307.584 
L 380.938378 307.584 
L 378.013563 307.584 
L 375.088747 307.584 
L 372.163931 307.584 
L 369.239115 307.584 
L 366.3143 307.584 
L 363.389484 307.584 
L 360.464668 307.584 
L 357.539853 307.584 
L 354.615037 307.584 
L 351.690221 307.584 
L 348.765405 307.584 
L 345.84059 307.584 
L 342.915774 307.584 
L 339.990958 307.584 
L 337.066143 307.584 
L 334.141327 307.584 
L 331.216511 244.224 
L 328.291695 252.144 
L 325.36688 244.224 
L 322.442064 252.144 
L 319.517248 244.224 
L 316.592432 244.224 
L 313.667617 244.224 
L 310.742801 252.144 
L 307.817985 244.224 
L 304.89317 252.144 
L 301.968354 252.144 
L 299.043538 260.064 
L 296.118722 252.144 
L 293.193907 260.064 
L 290.269091 267.984 
L 287.344275 196.704 
L 284.419459 212.544 
L 281.494644 228.384 
L 278.569828 212.544 
L 275.645012 220.464 
L 272.720197 212.544 
L 269.795381 228.384 
L 266.870565 220.464 
L 263.945749 228.384 
L 261.020934 220.464 
L 258.096118 204.624 
L 255.171302 220.464 
L 252.246486 236.304 
L 249.321671 220.464 
L 246.396855 220.464 
L 243.472039 220.464 
L 240.547224 220.464 
L 237.622408 220.464 
L 234.697592 228.384 
L 231.772776 212.544 
L 228.847961 220.464 
L 225.923145 228.384 
L 222.998329 220.464 
L 220.073514 204.624 
L 217.148698 220.464 
L 214.223882 212.544 
L 211.299066 236.304 
L 208.374251 236.304 
L 205.449435 228.384 
L 202.524619 236.304 
L 199.599803 228.384 
L 196.674988 236.304 
L 193.750172 228.384 
L 190.825356 236.304 
L 187.900541 244.224 
L 184.975725 244.224 
L 182.050909 252.144 
L 179.126093 252.144 
L 176.201278 220.464 
L 173.276462 236.304 
L 170.351646 236.304 
L 167.42683 220.464 
L 164.502015 228.384 
L 161.577199 228.384 
L 158.652383 228.384 
L 155.727568 236.304 
L 152.802752 204.624 
L 149.877936 228.384 
L 146.95312 244.224 
L 144.028305 236.304 
L 141.103489 244.224 
L 138.178673 212.544 
L 135.253857 244.224 
L 132.329042 236.304 
L 129.404226 228.384 
L 126.47941 228.384 
L 123.554595 244.224 
L 120.629779 236.304 
L 117.704963 236.304 
L 114.780147 244.224 
L 111.855332 244.224 
L 108.930516 252.144 
L 106.0057 260.064 
L 103.080885 291.744 
L 100.156069 260.064 
L 97.231253 125.424 
L 94.306437 69.984 
L 91.381622 69.984 
L 88.456806 69.984 
L 85.53199 69.984 
L 82.607174 69.984 
L 79.682359 69.984 
L 76.757543 69.984 
L 73.832727 69.984 
z
" clip-path="url(#p03272f9278)" style="fill: #1f77b4"/>
   </g>
   <g id="PolyCollection_2">
    <path d="M 73.832727 69.984 
L 73.832727 69.984 
L 76.757543 69.984 
L 79.682359 69.984 
L 82.607174 69.984 
L 85.53199 69.984 
L 88.456806 69.984 
L 91.381622 69.984 
L 94.306437 69.984 
L 97.231253 125.424 
L 100.156069 260.064 
L 103.080885 291.744 
L 106.0057 260.064 
L 108.930516 252.144 
L 111.855332 244.224 
L 114.780147 244.224 
L 117.704963 236.304 
L 120.629779 236.304 
L 123.554595 244.224 
L 126.47941 228.384 
L 129.404226 228.384 
L 132.329042 236.304 
L 135.253857 244.224 
L 138.178673 212.544 
L 141.103489 244.224 
L 144.028305 236.304 
L 146.95312 244.224 
L 149.877936 228.384 
L 152.802752 204.624 
L 155.727568 236.304 
L 158.652383 228.384 
L 161.577199 228.384 
L 164.502015 228.384 
L 167.42683 220.464 
L 170.351646 236.304 
L 173.276462 236.304 
L 176.201278 220.464 
L 179.126093 252.144 
L 182.050909 252.144 
L 184.975725 244.224 
L 187.900541 244.224 
L 190.825356 236.304 
L 193.750172 228.384 
L 196.674988 236.304 
L 199.599803 228.384 
L 202.524619 236.304 
L 205.449435 228.384 
L 208.374251 236.304 
L 211.299066 236.304 
L 214.223882 212.544 
L 217.148698 220.464 
L 220.073514 204.624 
L 222.998329 220.464 
L 225.923145 228.384 
L 228.847961 220.464 
L 231.772776 212.544 
L 234.697592 228.384 
L 237.622408 220.464 
L 240.547224 220.464 
L 243.472039 220.464 
L 246.396855 220.464 
L 249.321671 220.464 
L 252.246486 236.304 
L 255.171302 220.464 
L 258.096118 204.624 
L 261.020934 220.464 
L 263.945749 228.384 
L 266.870565 220.464 
L 269.795381 228.384 
L 272.720197 212.544 
L 275.645012 220.464 
L 278.569828 212.544 
L 281.494644 228.384 
L 284.419459 212.544 
L 287.344275 196.704 
L 290.269091 267.984 
L 293.193907 260.064 
L 296.118722 252.144 
L 299.043538 260.064 
L 301.968354 252.144 
L 304.89317 252.144 
L 307.817985 244.224 
L 310.742801 252.144 
L 313.667617 244.224 
L 316.592432 244.224 
L 319.517248 244.224 
L 322.442064 252.144 
L 325.36688 244.224 
L 328.291695 252.144 
L 331.216511 244.224 
L 334.141327 307.584 
L 337.066143 307.584 
L 339.990958 307.584 
L 342.915774 307.584 
L 345.84059 307.584 
L 348.765405 307.584 
L 351.690221 307.584 
L 354.615037 307.584 
L 357.539853 307.584 
L 360.464668 307.584 
L 363.389484 307.584 
L 366.3143 307.584 
L 369.239115 307.584 
L 372.163931 307.584 
L 375.088747 307.584 
L 378.013563 307.584 
L 380.938378 307.584 
L 383.863194 307.584 
L 386.78801 307.584 
L 389.712826 307.584 
L 392.637641 307.584 
L 395.562457 307.584 
L 398.487273 307.584 
L 398.487273 307.584 
L 398.487273 307.584 
L 395.562457 307.584 
L 392.637641 307.584 
L 389.712826 307.584 
L 386.78801 307.584 
L 383.863194 307.584 
L 380.938378 307.584 
L 378.013563 307.584 
L 375.088747 307.584 
L 372.163931 307.584 
L 369.239115 307.584 
L 366.3143 307.584 
L 363.389484 307.584 
L 360.464668 307.584 
L 357.539853 307.584 
L 354.615037 307.584 
L 351.690221 307.584 
L 348.765405 307.584 
L 345.84059 307.584 
L 342.915774 307.584 
L 339.990958 307.584 
L 337.066143 307.584 
L 334.141327 244.224 
L 331.216511 204.624 
L 328.291695 204.624 
L 325.36688 204.624 
L 322.442064 204.624 
L 319.517248 204.624 
L 316.592432 204.624 
L 313.667617 204.624 
L 310.742801 212.544 
L 307.817985 204.624 
L 304.89317 204.624 
L 301.968354 212.544 
L 299.043538 212.544 
L 296.118722 212.544 
L 293.193907 228.384 
L 290.269091 220.464 
L 287.344275 188.784 
L 284.419459 141.264 
L 281.494644 157.104 
L 278.569828 149.184 
L 275.645012 157.104 
L 272.720197 157.104 
L 269.795381 157.104 
L 266.870565 165.024 
L 263.945749 149.184 
L 261.020934 149.184 
L 258.096118 141.264 
L 255.171302 149.184 
L 252.246486 149.184 
L 249.321671 149.184 
L 246.396855 149.184 
L 243.472039 157.104 
L 240.547224 141.264 
L 237.622408 157.104 
L 234.697592 157.104 
L 231.772776 149.184 
L 228.847961 149.184 
L 225.923145 165.024 
L 222.998329 149.184 
L 220.073514 141.264 
L 217.148698 149.184 
L 214.223882 133.344 
L 211.299066 165.024 
L 208.374251 165.024 
L 205.449435 172.944 
L 202.524619 165.024 
L 199.599803 165.024 
L 196.674988 165.024 
L 193.750172 149.184 
L 190.825356 165.024 
L 187.900541 180.864 
L 184.975725 180.864 
L 182.050909 188.784 
L 179.126093 188.784 
L 176.201278 180.864 
L 173.276462 180.864 
L 170.351646 165.024 
L 167.42683 157.104 
L 164.502015 149.184 
L 161.577199 149.184 
L 158.652383 149.184 
L 155.727568 157.104 
L 152.802752 149.184 
L 149.877936 149.184 
L 146.95312 157.104 
L 144.028305 157.104 
L 141.103489 157.104 
L 138.178673 157.104 
L 135.253857 157.104 
L 132.329042 165.024 
L 129.404226 149.184 
L 126.47941 157.104 
L 123.554595 157.104 
L 120.629779 157.104 
L 117.704963 149.184 
L 114.780147 125.424 
L 111.855332 133.344 
L 108.930516 133.344 
L 106.0057 133.344 
L 103.080885 141.264 
L 100.156069 125.424 
L 97.231253 77.904 
L 94.306437 69.984 
L 91.381622 69.984 
L 88.456806 69.984 
L 85.53199 69.984 
L 82.607174 69.984 
L 79.682359 69.984 
L 76.757543 69.984 
L 73.832727 69.984 
z
" clip-path="url(#p03272f9278)" style="fill: #ff7f0e"/>
   </g>
   <g id="PolyCollection_3">
    <path d="M 73.832727 69.984 
L 73.832727 69.984 
L 76.757543 69.984 
L 79.682359 69.984 
L 82.607174 69.984 
L 85.53199 69.984 
L 88.456806 69.984 
L 91.381622 69.984 
L 94.306437 69.984 
L 97.231253 77.904 
L 100.156069 125.424 
L 103.080885 141.264 
L 106.0057 133.344 
L 108.930516 133.344 
L 111.855332 133.344 
L 114.780147 125.424 
L 117.704963 149.184 
L 120.629779 157.104 
L 123.554595 157.104 
L 126.47941 157.104 
L 129.404226 149.184 
L 132.329042 165.024 
L 135.253857 157.104 
L 138.178673 157.104 
L 141.103489 157.104 
L 144.028305 157.104 
L 146.95312 157.104 
L 149.877936 149.184 
L 152.802752 149.184 
L 155.727568 157.104 
L 158.652383 149.184 
L 161.577199 149.184 
L 164.502015 149.184 
L 167.42683 157.104 
L 170.351646 165.024 
L 173.276462 180.864 
L 176.201278 180.864 
L 179.126093 188.784 
L 182.050909 188.784 
L 184.975725 180.864 
L 187.900541 180.864 
L 190.825356 165.024 
L 193.750172 149.184 
L 196.674988 165.024 
L 199.599803 165.024 
L 202.524619 165.024 
L 205.449435 172.944 
L 208.374251 165.024 
L 211.299066 165.024 
L 214.223882 133.344 
L 217.148698 149.184 
L 220.073514 141.264 
L 222.998329 149.184 
L 225.923145 165.024 
L 228.847961 149.184 
L 231.772776 149.184 
L 234.697592 157.104 
L 237.622408 157.104 
L 240.547224 141.264 
L 243.472039 157.104 
L 246.396855 149.184 
L 249.321671 149.184 
L 252.246486 149.184 
L 255.171302 149.184 
L 258.096118 141.264 
L 261.020934 149.184 
L 263.945749 149.184 
L 266.870565 165.024 
L 269.795381 157.104 
L 272.720197 157.104 
L 275.645012 157.104 
L 278.569828 149.184 
L 281.494644 157.104 
L 284.419459 141.264 
L 287.344275 188.784 
L 290.269091 220.464 
L 293.193907 228.384 
L 296.118722 212.544 
L 299.043538 212.544 
L 301.968354 212.544 
L 304.89317 204.624 
L 307.817985 204.624 
L 310.742801 212.544 
L 313.667617 204.624 
L 316.592432 204.624 
L 319.517248 204.624 
L 322.442064 204.624 
L 325.36688 204.624 
L 328.291695 204.624 
L 331.216511 204.624 
L 334.141327 244.224 
L 337.066143 307.584 
L 339.990958 307.584 
L 342.915774 307.584 
L 345.84059 307.584 
L 348.765405 307.584 
L 351.690221 307.584 
L 354.615037 307.584 
L 357.539853 307.584 
L 360.464668 307.584 
L 363.389484 307.584 
L 366.3143 307.584 
L 369.239115 307.584 
L 372.163931 307.584 
L 375.088747 307.584 
L 378.013563 307.584 
L 380.938378 307.584 
L 383.863194 307.584 
L 386.78801 307.584 
L 389.712826 307.584 
L 392.637641 307.584 
L 395.562457 307.584 
L 398.487273 307.584 
L 398.487273 307.584 
L 398.487273 307.584 
L 395.562457 307.584 
L 392.637641 307.584 
L 389.712826 307.584 
L 386.78801 307.584 
L 383.863194 307.584 
L 380.938378 307.584 
L 378.013563 307.584 
L 375.088747 307.584 
L 372.163931 307.584 
L 369.239115 307.584 
L 366.3143 307.584 
L 363.389484 307.584 
L 360.464668 307.584 
L 357.539853 307.584 
L 354.615037 307.584 
L 351.690221 307.584 
L 348.765405 307.584 
L 345.84059 307.584 
L 342.915774 307.584 
L 339.990958 307.584 
L 337.066143 307.584 
L 334.141327 244.224 
L 331.216511 204.624 
L 328.291695 204.624 
L 325.36688 204.624 
L 322.442064 204.624 
L 319.517248 204.624 
L 316.592432 204.624 
L 313.667617 204.624 
L 310.742801 212.544 
L 307.817985 204.624 
L 304.89317 204.624 
L 301.968354 212.544 
L 299.043538 212.544 
L 296.118722 212.544 
L 293.193907 228.384 
L 290.269091 220.464 
L 287.344275 188.784 
L 284.419459 141.264 
L 281.494644 157.104 
L 278.569828 149.184 
L 275.645012 157.104 
L 272.720197 157.104 
L 269.795381 157.104 
L 266.870565 165.024 
L 263.945749 149.184 
L 261.020934 149.184 
L 258.096118 141.264 
L 255.171302 149.184 
L 252.246486 149.184 
L 249.321671 149.184 
L 246.396855 149.184 
L 243.472039 157.104 
L 240.547224 141.264 
L 237.622408 157.104 
L 234.697592 157.104 
L 231.772776 149.184 
L 228.847961 149.184 
L 225.923145 165.024 
L 222.998329 149.184 
L 220.073514 141.264 
L 217.148698 149.184 
L 214.223882 133.344 
L 211.299066 125.424 
L 208.374251 125.424 
L 205.449435 133.344 
L 202.524619 125.424 
L 199.599803 125.424 
L 196.674988 125.424 
L 193.750172 109.584 
L 190.825356 125.424 
L 187.900541 141.264 
L 184.975725 141.264 
L 182.050909 149.184 
L 179.126093 149.184 
L 176.201278 141.264 
L 173.276462 157.104 
L 170.351646 149.184 
L 167.42683 109.584 
L 164.502015 101.664 
L 161.577199 101.664 
L 158.652383 109.584 
L 155.727568 109.584 
L 152.802752 109.584 
L 149.877936 101.664 
L 146.95312 109.584 
L 144.028305 109.584 
L 141.103489 109.584 
L 138.178673 101.664 
L 135.253857 109.584 
L 132.329042 109.584 
L 129.404226 101.664 
L 126.47941 101.664 
L 123.554595 101.664 
L 120.629779 109.584 
L 117.704963 109.584 
L 114.780147 77.904 
L 111.855332 69.984 
L 108.930516 62.064 
L 106.0057 69.984 
L 103.080885 69.984 
L 100.156069 69.984 
L 97.231253 69.984 
L 94.306437 69.984 
L 91.381622 69.984 
L 88.456806 69.984 
L 85.53199 69.984 
L 82.607174 69.984 
L 79.682359 69.984 
L 76.757543 69.984 
L 73.832727 69.984 
z
" clip-path="url(#p03272f9278)" style="fill: #2ca02c"/>
   </g>
   <g id="PolyCollection_4">
    <path d="M 73.832727 69.984 
L 73.832727 69.984 
L 76.757543 69.984 
L 79.682359 69.984 
L 82.607174 69.984 
L 85.53199 69.984 
L 88.456806 69.984 
L 91.381622 69.984 
L 94.306437 69.984 
L 97.231253 69.984 
L 100.156069 69.984 
L 103.080885 69.984 
L 106.0057 69.984 
L 108.930516 62.064 
L 111.855332 69.984 
L 114.780147 77.904 
L 117.704963 109.584 
L 120.629779 109.584 
L 123.554595 101.664 
L 126.47941 101.664 
L 129.404226 101.664 
L 132.329042 109.584 
L 135.253857 109.584 
L 138.178673 101.664 
L 141.103489 109.584 
L 144.028305 109.584 
L 146.95312 109.584 
L 149.877936 101.664 
L 152.802752 109.584 
L 155.727568 109.584 
L 158.652383 109.584 
L 161.577199 101.664 
L 164.502015 101.664 
L 167.42683 109.584 
L 170.351646 149.184 
L 173.276462 157.104 
L 176.201278 141.264 
L 179.126093 149.184 
L 182.050909 149.184 
L 184.975725 141.264 
L 187.900541 141.264 
L 190.825356 125.424 
L 193.750172 109.584 
L 196.674988 125.424 
L 199.599803 125.424 
L 202.524619 125.424 
L 205.449435 133.344 
L 208.374251 125.424 
L 211.299066 125.424 
L 214.223882 133.344 
L 217.148698 149.184 
L 220.073514 141.264 
L 222.998329 149.184 
L 225.923145 165.024 
L 228.847961 149.184 
L 231.772776 149.184 
L 234.697592 157.104 
L 237.622408 157.104 
L 240.547224 141.264 
L 243.472039 157.104 
L 246.396855 149.184 
L 249.321671 149.184 
L 252.246486 149.184 
L 255.171302 149.184 
L 258.096118 141.264 
L 261.020934 149.184 
L 263.945749 149.184 
L 266.870565 165.024 
L 269.795381 157.104 
L 272.720197 157.104 
L 275.645012 157.104 
L 278.569828 149.184 
L 281.494644 157.104 
L 284.419459 141.264 
L 287.344275 188.784 
L 290.269091 220.464 
L 293.193907 228.384 
L 296.118722 212.544 
L 299.043538 212.544 
L 301.968354 212.544 
L 304.89317 204.624 
L 307.817985 204.624 
L 310.742801 212.544 
L 313.667617 204.624 
L 316.592432 204.624 
L 319.517248 204.624 
L 322.442064 204.624 
L 325.36688 204.624 
L 328.291695 204.624 
L 331.216511 204.624 
L 334.141327 244.224 
L 337.066143 307.584 
L 339.990958 307.584 
L 342.915774 307.584 
L 345.84059 307.584 
L 348.765405 307.584 
L 351.690221 307.584 
L 354.615037 307.584 
L 357.539853 307.584 
L 360.464668 307.584 
L 363.389484 307.584 
L 366.3143 307.584 
L 369.239115 307.584 
L 372.163931 307.584 
L 375.088747 307.584 
L 378.013563 307.584 
L 380.938378 307.584 
L 383.863194 307.584 
L 386.78801 307.584 
L 389.712826 307.584 
L 392.637641 307.584 
L 395.562457 307.584 
L 398.487273 307.584 
L 398.487273 307.584 
L 398.487273 307.584 
L 395.562457 307.584 
L 392.637641 307.584 
L 389.712826 307.584 
L 386.78801 307.584 
L 383.863194 307.584 
L 380.938378 307.584 
L 378.013563 307.584 
L 375.088747 307.584 
L 372.163931 307.584 
L 369.239115 307.584 
L 366.3143 307.584 
L 363.389484 307.584 
L 360.464668 307.584 
L 357.539853 307.584 
L 354.615037 307.584 
L 351.690221 307.584 
L 348.765405 307.584 
L 345.84059 307.584 
L 342.915774 307.584 
L 339.990958 307.584 
L 337.066143 307.584 
L 334.141327 244.224 
L 331.216511 204.624 
L 328.291695 204.624 
L 325.36688 204.624 
L 322.442064 204.624 
L 319.517248 204.624 
L 316.592432 204.624 
L 313.667617 204.624 
L 310.742801 212.544 
L 307.817985 204.624 
L 304.89317 204.624 
L 301.968354 212.544 
L 299.043538 212.544 
L 296.118722 212.544 
L 293.193907 228.384 
L 290.269091 220.464 
L 287.344275 188.784 
L 284.419459 141.264 
L 281.494644 157.104 
L 278.569828 149.184 
L 275.645012 157.104 
L 272.720197 157.104 
L 269.795381 157.104 
L 266.870565 165.024 
L 263.945749 149.184 
L 261.020934 149.184 
L 258.096118 141.264 
L 255.171302 149.184 
L 252.246486 149.184 
L 249.321671 149.184 
L 246.396855 149.184 
L 243.472039 157.104 
L 240.547224 141.264 
L 237.622408 157.104 
L 234.697592 157.104 
L 231.772776 149.184 
L 228.847961 149.184 
L 225.923145 165.024 
L 222.998329 149.184 
L 220.073514 141.264 
L 217.148698 149.184 
L 214.223882 133.344 
L 211.299066 125.424 
L 208.374251 125.424 
L 205.449435 133.344 
L 202.524619 125.424 
L 199.599803 125.424 
L 196.674988 125.424 
L 193.750172 109.584 
L 190.825356 125.424 
L 187.900541 101.664 
L 184.975725 101.664 
L 182.050909 109.584 
L 179.126093 109.584 
L 176.201278 101.664 
L 173.276462 117.504 
L 170.351646 109.584 
L 167.42683 69.984 
L 164.502015 62.064 
L 161.577199 62.064 
L 158.652383 69.984 
L 155.727568 69.984 
L 152.802752 69.984 
L 149.877936 62.064 
L 146.95312 69.984 
L 144.028305 69.984 
L 141.103489 69.984 
L 138.178673 62.064 
L 135.253857 69.984 
L 132.329042 69.984 
L 129.404226 62.064 
L 126.47941 62.064 
L 123.554595 62.064 
L 120.629779 62.064 
L 117.704963 54.144 
L 114.780147 69.984 
L 111.855332 69.984 
L 108.930516 62.064 
L 106.0057 69.984 
L 103.080885 69.984 
L 100.156069 69.984 
L 97.231253 69.984 
L 94.306437 69.984 
L 91.381622 69.984 
L 88.456806 69.984 
L 85.53199 69.984 
L 82.607174 69.984 
L 79.682359 69.984 
L 76.757543 69.984 
L 73.832727 69.984 
z
" clip-path="url(#p03272f9278)" style="fill: #d62728"/>
   </g>
   <g id="PolyCollection_5">
    <path d="M 73.832727 69.984 
L 73.832727 69.984 
L 76.757543 69.984 
L 79.682359 69.984 
L 82.607174 69.984 
L 85.53199 69.984 
L 88.456806 69.984 
L 91.381622 69.984 
L 94.306437 69.984 
L 97.231253 69.984 
L 100.156069 69.984 
L 103.080885 69.984 
L 106.0057 69.984 
L 108.930516 62.064 
L 111.855332 69.984 
L 114.780147 69.984 
L 117.704963 54.144 
L 120.629779 62.064 
L 123.554595 62.064 
L 126.47941 62.064 
L 129.404226 62.064 
L 132.329042 69.984 
L 135.253857 69.984 
L 138.178673 62.064 
L 141.103489 69.984 
L 144.028305 69.984 
L 146.95312 69.984 
L 149.877936 62.064 
L 152.802752 69.984 
L 155.727568 69.984 
L 158.652383 69.984 
L 161.577199 62.064 
L 164.502015 62.064 
L 167.42683 69.984 
L 170.351646 109.584 
L 173.276462 117.504 
L 176.201278 101.664 
L 179.126093 109.584 
L 182.050909 109.584 
L 184.975725 101.664 
L 187.900541 101.664 
L 190.825356 125.424 
L 193.750172 109.584 
L 196.674988 125.424 
L 199.599803 125.424 
L 202.524619 125.424 
L 205.449435 133.344 
L 208.374251 125.424 
L 211.299066 125.424 
L 214.223882 133.344 
L 217.148698 149.184 
L 220.073514 141.264 
L 222.998329 149.184 
L 225.923145 165.024 
L 228.847961 149.184 
L 231.772776 149.184 
L 234.697592 157.104 
L 237.622408 157.104 
L 240.547224 141.264 
L 243.472039 157.104 
L 246.396855 149.184 
L 249.321671 149.184 
L 252.246486 149.184 
L 255.171302 149.184 
L 258.096118 141.264 
L 261.020934 149.184 
L 263.945749 149.184 
L 266.870565 165.024 
L 269.795381 157.104 
L 272.720197 157.104 
L 275.645012 157.104 
L 278.569828 149.184 
L 281.494644 157.104 
L 284.419459 141.264 
L 287.344275 188.784 
L 290.269091 220.464 
L 293.193907 228.384 
L 296.118722 212.544 
L 299.043538 212.544 
L 301.968354 212.544 
L 304.89317 204.624 
L 307.817985 204.624 
L 310.742801 212.544 
L 313.667617 204.624 
L 316.592432 204.624 
L 319.517248 204.624 
L 322.442064 204.624 
L 325.36688 204.624 
L 328.291695 204.624 
L 331.216511 204.624 
L 334.141327 244.224 
L 337.066143 307.584 
L 339.990958 307.584 
L 342.915774 307.584 
L 345.84059 307.584 
L 348.765405 307.584 
L 351.690221 307.584 
L 354.615037 307.584 
L 357.539853 307.584 
L 360.464668 307.584 
L 363.389484 307.584 
L 366.3143 307.584 
L 369.239115 307.584 
L 372.163931 307.584 
L 375.088747 307.584 
L 378.013563 307.584 
L 380.938378 307.584 
L 383.863194 307.584 
L 386.78801 307.584 
L 389.712826 307.584 
L 392.637641 307.584 
L 395.562457 307.584 
L 398.487273 307.584 
L 398.487273 172.944 
L 398.487273 172.944 
L 395.562457 212.544 
L 392.637641 188.784 
L 389.712826 196.704 
L 386.78801 188.784 
L 383.863194 180.864 
L 380.938378 188.784 
L 378.013563 196.704 
L 375.088747 188.784 
L 372.163931 196.704 
L 369.239115 188.784 
L 366.3143 180.864 
L 363.389484 188.784 
L 360.464668 196.704 
L 357.539853 188.784 
L 354.615037 180.864 
L 351.690221 188.784 
L 348.765405 196.704 
L 345.84059 188.784 
L 342.915774 172.944 
L 339.990958 180.864 
L 337.066143 188.784 
L 334.141327 149.184 
L 331.216511 125.424 
L 328.291695 133.344 
L 325.36688 125.424 
L 322.442064 133.344 
L 319.517248 141.264 
L 316.592432 141.264 
L 313.667617 141.264 
L 310.742801 141.264 
L 307.817985 141.264 
L 304.89317 133.344 
L 301.968354 133.344 
L 299.043538 133.344 
L 296.118722 141.264 
L 293.193907 157.104 
L 290.269091 157.104 
L 287.344275 117.504 
L 284.419459 62.064 
L 281.494644 69.984 
L 278.569828 69.984 
L 275.645012 69.984 
L 272.720197 62.064 
L 269.795381 69.984 
L 266.870565 77.904 
L 263.945749 69.984 
L 261.020934 62.064 
L 258.096118 69.984 
L 255.171302 77.904 
L 252.246486 69.984 
L 249.321671 69.984 
L 246.396855 77.904 
L 243.472039 69.984 
L 240.547224 62.064 
L 237.622408 77.904 
L 234.697592 69.984 
L 231.772776 69.984 
L 228.847961 62.064 
L 225.923145 77.904 
L 222.998329 62.064 
L 220.073514 62.064 
L 217.148698 77.904 
L 214.223882 62.064 
L 211.299066 69.984 
L 208.374251 69.984 
L 205.449435 69.984 
L 202.524619 62.064 
L 199.599803 69.984 
L 196.674988 62.064 
L 193.750172 62.064 
L 190.825356 69.984 
L 187.900541 62.064 
L 184.975725 62.064 
L 182.050909 69.984 
L 179.126093 69.984 
L 176.201278 62.064 
L 173.276462 62.064 
L 170.351646 69.984 
L 167.42683 69.984 
L 164.502015 62.064 
L 161.577199 62.064 
L 158.652383 69.984 
L 155.727568 69.984 
L 152.802752 69.984 
L 149.877936 62.064 
L 146.95312 69.984 
L 144.028305 69.984 
L 141.103489 69.984 
L 138.178673 62.064 
L 135.253857 69.984 
L 132.329042 69.984 
L 129.404226 62.064 
L 126.47941 62.064 
L 123.554595 62.064 
L 120.629779 62.064 
L 117.704963 54.144 
L 114.780147 69.984 
L 111.855332 69.984 
L 108.930516 62.064 
L 106.0057 69.984 
L 103.080885 69.984 
L 100.156069 69.984 
L 97.231253 69.984 
L 94.306437 69.984 
L 91.381622 69.984 
L 88.456806 69.984 
L 85.53199 69.984 
L 82.607174 69.984 
L 79.682359 69.984 
L 76.757543 69.984 
L 73.832727 69.984 
z
" clip-path="url(#p03272f9278)" style="fill: #9467bd"/>
   </g>
   <g id="PolyCollection_6">
    <path d="M 73.832727 69.984 
L 73.832727 69.984 
L 76.757543 69.984 
L 79.682359 69.984 
L 82.607174 69.984 
L 85.53199 69.984 
L 88.456806 69.984 
L 91.381622 69.984 
L 94.306437 69.984 
L 97.231253 69.984 
L 100.156069 69.984 
L 103.080885 69.984 
L 106.0057 69.984 
L 108.930516 62.064 
L 111.855332 69.984 
L 114.780147 69.984 
L 117.704963 54.144 
L 120.629779 62.064 
L 123.554595 62.064 
L 126.47941 62.064 
L 129.404226 62.064 
L 132.329042 69.984 
L 135.253857 69.984 
L 138.178673 62.064 
L 141.103489 69.984 
L 144.028305 69.984 
L 146.95312 69.984 
L 149.877936 62.064 
L 152.802752 69.984 
L 155.727568 69.984 
L 158.652383 69.984 
L 161.577199 62.064 
L 164.502015 62.064 
L 167.42683 69.984 
L 170.351646 69.984 
L 173.276462 62.064 
L 176.201278 62.064 
L 179.126093 69.984 
L 182.050909 69.984 
L 184.975725 62.064 
L 187.900541 62.064 
L 190.825356 69.984 
L 193.750172 62.064 
L 196.674988 62.064 
L 199.599803 69.984 
L 202.524619 62.064 
L 205.449435 69.984 
L 208.374251 69.984 
L 211.299066 69.984 
L 214.223882 62.064 
L 217.148698 77.904 
L 220.073514 62.064 
L 222.998329 62.064 
L 225.923145 77.904 
L 228.847961 62.064 
L 231.772776 69.984 
L 234.697592 69.984 
L 237.622408 77.904 
L 240.547224 62.064 
L 243.472039 69.984 
L 246.396855 77.904 
L 249.321671 69.984 
L 252.246486 69.984 
L 255.171302 77.904 
L 258.096118 69.984 
L 261.020934 62.064 
L 263.945749 69.984 
L 266.870565 77.904 
L 269.795381 69.984 
L 272.720197 62.064 
L 275.645012 69.984 
L 278.569828 69.984 
L 281.494644 69.984 
L 284.419459 62.064 
L 287.344275 117.504 
L 290.269091 157.104 
L 293.193907 157.104 
L 296.118722 141.264 
L 299.043538 133.344 
L 301.968354 133.344 
L 304.89317 133.344 
L 307.817985 141.264 
L 310.742801 141.264 
L 313.667617 141.264 
L 316.592432 141.264 
L 319.517248 141.264 
L 322.442064 133.344 
L 325.36688 125.424 
L 328.291695 133.344 
L 331.216511 125.424 
L 334.141327 149.184 
L 337.066143 188.784 
L 339.990958 180.864 
L 342.915774 172.944 
L 345.84059 188.784 
L 348.765405 196.704 
L 351.690221 188.784 
L 354.615037 180.864 
L 357.539853 188.784 
L 360.464668 196.704 
L 363.389484 188.784 
L 366.3143 180.864 
L 369.239115 188.784 
L 372.163931 196.704 
L 375.088747 188.784 
L 378.013563 196.704 
L 380.938378 188.784 
L 383.863194 180.864 
L 386.78801 188.784 
L 389.712826 196.704 
L 392.637641 188.784 
L 395.562457 212.544 
L 398.487273 172.944 
L 398.487273 69.984 
L 398.487273 69.984 
L 395.562457 69.984 
L 392.637641 69.984 
L 389.712826 69.984 
L 386.78801 69.984 
L 383.863194 69.984 
L 380.938378 69.984 
L 378.013563 69.984 
L 375.088747 69.984 
L 372.163931 69.984 
L 369.239115 69.984 
L 366.3143 69.984 
L 363.389484 69.984 
L 360.464668 69.984 
L 357.539853 69.984 
L 354.615037 69.984 
L 351.690221 69.984 
L 348.765405 69.984 
L 345.84059 69.984 
L 342.915774 69.984 
L 339.990958 69.984 
L 337.066143 69.984 
L 334.141327 69.984 
L 331.216511 62.064 
L 328.291695 62.064 
L 325.36688 62.064 
L 322.442064 62.064 
L 319.517248 77.904 
L 316.592432 77.904 
L 313.667617 62.064 
L 310.742801 69.984 
L 307.817985 77.904 
L 304.89317 62.064 
L 301.968354 69.984 
L 299.043538 69.984 
L 296.118722 69.984 
L 293.193907 69.984 
L 290.269091 69.984 
L 287.344275 69.984 
L 284.419459 62.064 
L 281.494644 69.984 
L 278.569828 69.984 
L 275.645012 69.984 
L 272.720197 62.064 
L 269.795381 69.984 
L 266.870565 77.904 
L 263.945749 69.984 
L 261.020934 62.064 
L 258.096118 69.984 
L 255.171302 77.904 
L 252.246486 69.984 
L 249.321671 69.984 
L 246.396855 77.904 
L 243.472039 69.984 
L 240.547224 62.064 
L 237.622408 77.904 
L 234.697592 69.984 
L 231.772776 69.984 
L 228.847961 62.064 
L 225.923145 77.904 
L 222.998329 62.064 
L 220.073514 62.064 
L 217.148698 77.904 
L 214.223882 62.064 
L 211.299066 69.984 
L 208.374251 69.984 
L 205.449435 69.984 
L 202.524619 62.064 
L 199.599803 69.984 
L 196.674988 62.064 
L 193.750172 62.064 
L 190.825356 69.984 
L 187.900541 62.064 
L 184.975725 62.064 
L 182.050909 69.984 
L 179.126093 69.984 
L 176.201278 62.064 
L 173.276462 62.064 
L 170.351646 69.984 
L 167.42683 69.984 
L 164.502015 62.064 
L 161.577199 62.064 
L 158.652383 69.984 
L 155.727568 69.984 
L 152.802752 69.984 
L 149.877936 62.064 
L 146.95312 69.984 
L 144.028305 69.984 
L 141.103489 69.984 
L 138.178673 62.064 
L 135.253857 69.984 
L 132.329042 69.984 
L 129.404226 62.064 
L 126.47941 62.064 
L 123.554595 62.064 
L 120.629779 62.064 
L 117.704963 54.144 
L 114.780147 69.984 
L 111.855332 69.984 
L 108.930516 62.064 
L 106.0057 69.984 
L 103.080885 69.984 
L 100.156069 69.984 
L 97.231253 69.984 
L 94.306437 69.984 
L 91.381622 69.984 
L 88.456806 69.984 
L 85.53199 69.984 
L 82.607174 69.984 
L 79.682359 69.984 
L 76.757543 69.984 
L 73.832727 69.984 
z
" clip-path="url(#p03272f9278)" style="fill: #8c564b"/>
   </g>
   <g id="matplotlib.axis_1">
    <g id="xtick_1">
     <g id="line2d_1">
      <defs>
       <path id="m9ea7240946" d="M 0 0 
L 0 3.5 
" style="stroke: #000000; stroke-width: 0.8"/>
      </defs>
      <g>
       <use xlink:href="#m9ea7240946" x="73.832727" y="307.584" style="stroke: #000000; stroke-width: 0.8"/>
      </g>
     </g>
     <g id="text_1">
      <!-- 0 -->
      <g transform="translate(70.651477 322.182437)scale(0.1 -0.1)">
       <defs>
        <path id="DejaVuSans-30" d="M 2034 4250 
Q 1547 4250 1301 3770 
Q 1056 3291 1056 2328 
Q 1056 1369 1301 889 
Q 1547 409 2034 409 
Q 2525 409 2770 889 
Q 3016 1369 3016 2328 
Q 3016 3291 2770 3770 
Q 2525 4250 2034 4250 
z
M 2034 4750 
Q 2819 4750 3233 4129 
Q 3647 3509 3647 2328 
Q 3647 1150 3233 529 
Q 2819 -91 2034 -91 
Q 1250 -91 836 529 
Q 422 1150 422 2328 
Q 422 3509 836 4129 
Q 1250 4750 2034 4750 
z
" transform="scale(0.015625)"/>
       </defs>
       <use xlink:href="#DejaVuSans-30"/>
      </g>
     </g>
    </g>
    <g id="xtick_2">
     <g id="line2d_2">
      <g>
       <use xlink:href="#m9ea7240946" x="132.329042" y="307.584" style="stroke: #000000; stroke-width: 0.8"/>
      </g>
     </g>
     <g id="text_2">
      <!-- 20 -->
      <g transform="translate(125.966542 322.182437)scale(0.1 -0.1)">
       <defs>
        <path id="DejaVuSans-32" d="M 1228 531 
L 3431 531 
L 3431 0 
L 469 0 
L 469 531 
Q 828 903 1448 1529 
Q 2069 2156 2228 2338 
Q 2531 2678 2651 2914 
Q 2772 3150 2772 3378 
Q 2772 3750 2511 3984 
Q 2250 4219 1831 4219 
Q 1534 4219 1204 4116 
Q 875 4013 500 3803 
L 500 4441 
Q 881 4594 1212 4672 
Q 1544 4750 1819 4750 
Q 2544 4750 2975 4387 
Q 3406 4025 3406 3419 
Q 3406 3131 3298 2873 
Q 3191 2616 2906 2266 
Q 2828 2175 2409 1742 
Q 1991 1309 1228 531 
z
" transform="scale(0.015625)"/>
       </defs>
       <use xlink:href="#DejaVuSans-32"/>
       <use xlink:href="#DejaVuSans-30" x="63.623047"/>
      </g>
     </g>
    </g>
    <g id="xtick_3">
     <g id="line2d_3">
      <g>
       <use xlink:href="#m9ea7240946" x="190.825356" y="307.584" style="stroke: #000000; stroke-width: 0.8"/>
      </g>
     </g>
     <g id="text_3">
      <!-- 40 -->
      <g transform="translate(184.462856 322.182437)scale(0.1 -0.1)">
       <defs>
        <path id="DejaVuSans-34" d="M 2419 4116 
L 825 1625 
L 2419 1625 
L 2419 4116 
z
M 2253 4666 
L 3047 4666 
L 3047 1625 
L 3713 1625 
L 3713 1100 
L 3047 1100 
L 3047 0 
L 2419 0 
L 2419 1100 
L 313 1100 
L 313 1709 
L 2253 4666 
z
" transform="scale(0.015625)"/>
       </defs>
       <use xlink:href="#DejaVuSans-34"/>
       <use xlink:href="#DejaVuSans-30" x="63.623047"/>
      </g>
     </g>
    </g>
    <g id="xtick_4">
     <g id="line2d_4">
      <g>
       <use xlink:href="#m9ea7240946" x="249.321671" y="307.584" style="stroke: #000000; stroke-width: 0.8"/>
      </g>
     </g>
     <g id="text_4">
      <!-- 60 -->
      <g transform="translate(242.959171 322.182437)scale(0.1 -0.1)">
       <defs>
        <path id="DejaVuSans-36" d="M 2113 2584 
Q 1688 2584 1439 2293 
Q 1191 2003 1191 1497 
Q 1191 994 1439 701 
Q 1688 409 2113 409 
Q 2538 409 2786 701 
Q 3034 994 3034 1497 
Q 3034 2003 2786 2293 
Q 2538 2584 2113 2584 
z
M 3366 4563 
L 3366 3988 
Q 3128 4100 2886 4159 
Q 2644 4219 2406 4219 
Q 1781 4219 1451 3797 
Q 1122 3375 1075 2522 
Q 1259 2794 1537 2939 
Q 1816 3084 2150 3084 
Q 2853 3084 3261 2657 
Q 3669 2231 3669 1497 
Q 3669 778 3244 343 
Q 2819 -91 2113 -91 
Q 1303 -91 875 529 
Q 447 1150 447 2328 
Q 447 3434 972 4092 
Q 1497 4750 2381 4750 
Q 2619 4750 2861 4703 
Q 3103 4656 3366 4563 
z
" transform="scale(0.015625)"/>
       </defs>
       <use xlink:href="#DejaVuSans-36"/>
       <use xlink:href="#DejaVuSans-30" x="63.623047"/>
      </g>
     </g>
    </g>
    <g id="xtick_5">
     <g id="line2d_5">
      <g>
       <use xlink:href="#m9ea7240946" x="307.817985" y="307.584" style="stroke: #000000; stroke-width: 0.8"/>
      </g>
     </g>
     <g id="text_5">
      <!-- 80 -->
      <g transform="translate(301.455485 322.182437)scale(0.1 -0.1)">
       <defs>
        <path id="DejaVuSans-38" d="M 2034 2216 
Q 1584 2216 1326 1975 
Q 1069 1734 1069 1313 
Q 1069 891 1326 650 
Q 1584 409 2034 409 
Q 2484 409 2743 651 
Q 3003 894 3003 1313 
Q 3003 1734 2745 1975 
Q 2488 2216 2034 2216 
z
M 1403 2484 
Q 997 2584 770 2862 
Q 544 3141 544 3541 
Q 544 4100 942 4425 
Q 1341 4750 2034 4750 
Q 2731 4750 3128 4425 
Q 3525 4100 3525 3541 
Q 3525 3141 3298 2862 
Q 3072 2584 2669 2484 
Q 3125 2378 3379 2068 
Q 3634 1759 3634 1313 
Q 3634 634 3220 271 
Q 2806 -91 2034 -91 
Q 1263 -91 848 271 
Q 434 634 434 1313 
Q 434 1759 690 2068 
Q 947 2378 1403 2484 
z
M 1172 3481 
Q 1172 3119 1398 2916 
Q 1625 2713 2034 2713 
Q 2441 2713 2670 2916 
Q 2900 3119 2900 3481 
Q 2900 3844 2670 4047 
Q 2441 4250 2034 4250 
Q 1625 4250 1398 4047 
Q 1172 3844 1172 3481 
z
" transform="scale(0.015625)"/>
       </defs>
       <use xlink:href="#DejaVuSans-38"/>
       <use xlink:href="#DejaVuSans-30" x="63.623047"/>
      </g>
     </g>
    </g>
    <g id="xtick_6">
     <g id="line2d_6">
      <g>
       <use xlink:href="#m9ea7240946" x="366.3143" y="307.584" style="stroke: #000000; stroke-width: 0.8"/>
      </g>
     </g>
     <g id="text_6">
      <!-- 100 -->
      <g transform="translate(356.77055 322.182437)scale(0.1 -0.1)">
       <defs>
        <path id="DejaVuSans-31" d="M 794 531 
L 1825 531 
L 1825 4091 
L 703 3866 
L 703 4441 
L 1819 4666 
L 2450 4666 
L 2450 531 
L 3481 531 
L 3481 0 
L 794 0 
L 794 531 
z
" transform="scale(0.015625)"/>
       </defs>
       <use xlink:href="#DejaVuSans-31"/>
       <use xlink:href="#DejaVuSans-30" x="63.623047"/>
       <use xlink:href="#DejaVuSans-30" x="127.246094"/>
      </g>
     </g>
    </g>
    <g id="text_7">
     <!-- Generations -->
     <g transform="translate(205.662344 335.860562)scale(0.1 -0.1)">
      <defs>
       <path id="DejaVuSans-47" d="M 3809 666 
L 3809 1919 
L 2778 1919 
L 2778 2438 
L 4434 2438 
L 4434 434 
Q 4069 175 3628 42 
Q 3188 -91 2688 -91 
Q 1594 -91 976 548 
Q 359 1188 359 2328 
Q 359 3472 976 4111 
Q 1594 4750 2688 4750 
Q 3144 4750 3555 4637 
Q 3966 4525 4313 4306 
L 4313 3634 
Q 3963 3931 3569 4081 
Q 3175 4231 2741 4231 
Q 1884 4231 1454 3753 
Q 1025 3275 1025 2328 
Q 1025 1384 1454 906 
Q 1884 428 2741 428 
Q 3075 428 3337 486 
Q 3600 544 3809 666 
z
" transform="scale(0.015625)"/>
       <path id="DejaVuSans-65" d="M 3597 1894 
L 3597 1613 
L 953 1613 
Q 991 1019 1311 708 
Q 1631 397 2203 397 
Q 2534 397 2845 478 
Q 3156 559 3463 722 
L 3463 178 
Q 3153 47 2828 -22 
Q 2503 -91 2169 -91 
Q 1331 -91 842 396 
Q 353 884 353 1716 
Q 353 2575 817 3079 
Q 1281 3584 2069 3584 
Q 2775 3584 3186 3129 
Q 3597 2675 3597 1894 
z
M 3022 2063 
Q 3016 2534 2758 2815 
Q 2500 3097 2075 3097 
Q 1594 3097 1305 2825 
Q 1016 2553 972 2059 
L 3022 2063 
z
" transform="scale(0.015625)"/>
       <path id="DejaVuSans-6e" d="M 3513 2113 
L 3513 0 
L 2938 0 
L 2938 2094 
Q 2938 2591 2744 2837 
Q 2550 3084 2163 3084 
Q 1697 3084 1428 2787 
Q 1159 2491 1159 1978 
L 1159 0 
L 581 0 
L 581 3500 
L 1159 3500 
L 1159 2956 
Q 1366 3272 1645 3428 
Q 1925 3584 2291 3584 
Q 2894 3584 3203 3211 
Q 3513 2838 3513 2113 
z
" transform="scale(0.015625)"/>
       <path id="DejaVuSans-72" d="M 2631 2963 
Q 2534 3019 2420 3045 
Q 2306 3072 2169 3072 
Q 1681 3072 1420 2755 
Q 1159 2438 1159 1844 
L 1159 0 
L 581 0 
L 581 3500 
L 1159 3500 
L 1159 2956 
Q 1341 3275 1631 3429 
Q 1922 3584 2338 3584 
Q 2397 3584 2469 3576 
Q 2541 3569 2628 3553 
L 2631 2963 
z
" transform="scale(0.015625)"/>
       <path id="DejaVuSans-61" d="M 2194 1759 
Q 1497 1759 1228 1600 
Q 959 1441 959 1056 
Q 959 750 1161 570 
Q 1363 391 1709 391 
Q 2188 391 2477 730 
Q 2766 1069 2766 1631 
L 2766 1759 
L 2194 1759 
z
M 3341 1997 
L 3341 0 
L 2766 0 
L 2766 531 
Q 2569 213 2275 61 
Q 1981 -91 1556 -91 
Q 1019 -91 701 211 
Q 384 513 384 1019 
Q 384 1609 779 1909 
Q 1175 2209 1959 2209 
L 2766 2209 
L 2766 2266 
Q 2766 2663 2505 2880 
Q 2244 3097 1772 3097 
Q 1472 3097 1187 3025 
Q 903 2953 641 2809 
L 641 3341 
Q 956 3463 1253 3523 
Q 1550 3584 1831 3584 
Q 2591 3584 2966 3190 
Q 3341 2797 3341 1997 
z
" transform="scale(0.015625)"/>
       <path id="DejaVuSans-74" d="M 1172 4494 
L 1172 3500 
L 2356 3500 
L 2356 3053 
L 1172 3053 
L 1172 1153 
Q 1172 725 1289 603 
Q 1406 481 1766 481 
L 2356 481 
L 2356 0 
L 1766 0 
Q 1100 0 847 248 
Q 594 497 594 1153 
L 594 3053 
L 172 3053 
L 172 3500 
L 594 3500 
L 594 4494 
L 1172 4494 
z
" transform="scale(0.015625)"/>
       <path id="DejaVuSans-69" d="M 603 3500 
L 1178 3500 
L 1178 0 
L 603 0 
L 603 3500 
z
M 603 4863 
L 1178 4863 
L 1178 4134 
L 603 4134 
L 603 4863 
z
" transform="scale(0.015625)"/>
       <path id="DejaVuSans-6f" d="M 1959 3097 
Q 1497 3097 1228 2736 
Q 959 2375 959 1747 
Q 959 1119 1226 758 
Q 1494 397 1959 397 
Q 2419 397 2687 759 
Q 2956 1122 2956 1747 
Q 2956 2369 2687 2733 
Q 2419 3097 1959 3097 
z
M 1959 3584 
Q 2709 3584 3137 3096 
Q 3566 2609 3566 1747 
Q 3566 888 3137 398 
Q 2709 -91 1959 -91 
Q 1206 -91 779 398 
Q 353 888 353 1747 
Q 353 2609 779 3096 
Q 1206 3584 1959 3584 
z
" transform="scale(0.015625)"/>
       <path id="DejaVuSans-73" d="M 2834 3397 
L 2834 2853 
Q 2591 2978 2328 3040 
Q 2066 3103 1784 3103 
Q 1356 3103 1142 2972 
Q 928 2841 928 2578 
Q 928 2378 1081 2264 
Q 1234 2150 1697 2047 
L 1894 2003 
Q 2506 1872 2764 1633 
Q 3022 1394 3022 966 
Q 3022 478 2636 193 
Q 2250 -91 1575 -91 
Q 1294 -91 989 -36 
Q 684 19 347 128 
L 347 722 
Q 666 556 975 473 
Q 1284 391 1588 391 
Q 1994 391 2212 530 
Q 2431 669 2431 922 
Q 2431 1156 2273 1281 
Q 2116 1406 1581 1522 
L 1381 1569 
Q 847 1681 609 1914 
Q 372 2147 372 2553 
Q 372 3047 722 3315 
Q 1072 3584 1716 3584 
Q 2034 3584 2315 3537 
Q 2597 3491 2834 3397 
z
" transform="scale(0.015625)"/>
      </defs>
      <use xlink:href="#DejaVuSans-47"/>
      <use xlink:href="#DejaVuSans-65" x="77.490234"/>
      <use xlink:href="#DejaVuSans-6e" x="139.013672"/>
      <use xlink:href="#DejaVuSans-65" x="202.392578"/>
      <use xlink:href="#DejaVuSans-72" x="263.916016"/>
      <use xlink:href="#DejaVuSans-61" x="305.029297"/>
      <use xlink:href="#DejaVuSans-74" x="366.308594"/>
      <use xlink:href="#DejaVuSans-69" x="405.517578"/>
      <use xlink:href="#DejaVuSans-6f" x="433.300781"/>
      <use xlink:href="#DejaVuSans-6e" x="494.482422"/>
      <use xlink:href="#DejaVuSans-73" x="557.861328"/>
     </g>
    </g>
   </g>
   <g id="matplotlib.axis_2">
    <g id="ytick_1">
     <g id="line2d_7">
      <defs>
       <path id="m1ab267701b" d="M 0 0 
L -3.5 0 
" style="stroke: #000000; stroke-width: 0.8"/>
      </defs>
      <g>
       <use xlink:href="#m1ab267701b" x="57.6" y="307.584" style="stroke: #000000; stroke-width: 0.8"/>
      </g>
     </g>
     <g id="text_8">
      <!-- 0 -->
      <g transform="translate(44.2375 311.383219)scale(0.1 -0.1)">
       <use xlink:href="#DejaVuSans-30"/>
      </g>
     </g>
    </g>
    <g id="ytick_2">
     <g id="line2d_8">
      <g>
       <use xlink:href="#m1ab267701b" x="57.6" y="267.984" style="stroke: #000000; stroke-width: 0.8"/>
      </g>
     </g>
     <g id="text_9">
      <!-- 5 -->
      <g transform="translate(44.2375 271.783219)scale(0.1 -0.1)">
       <defs>
        <path id="DejaVuSans-35" d="M 691 4666 
L 3169 4666 
L 3169 4134 
L 1269 4134 
L 1269 2991 
Q 1406 3038 1543 3061 
Q 1681 3084 1819 3084 
Q 2600 3084 3056 2656 
Q 3513 2228 3513 1497 
Q 3513 744 3044 326 
Q 2575 -91 1722 -91 
Q 1428 -91 1123 -41 
Q 819 9 494 109 
L 494 744 
Q 775 591 1075 516 
Q 1375 441 1709 441 
Q 2250 441 2565 725 
Q 2881 1009 2881 1497 
Q 2881 1984 2565 2268 
Q 2250 2553 1709 2553 
Q 1456 2553 1204 2497 
Q 953 2441 691 2322 
L 691 4666 
z
" transform="scale(0.015625)"/>
       </defs>
       <use xlink:href="#DejaVuSans-35"/>
      </g>
     </g>
    </g>
    <g id="ytick_3">
     <g id="line2d_9">
      <g>
       <use xlink:href="#m1ab267701b" x="57.6" y="228.384" style="stroke: #000000; stroke-width: 0.8"/>
      </g>
     </g>
     <g id="text_10">
      <!-- 10 -->
      <g transform="translate(37.875 232.183219)scale(0.1 -0.1)">
       <use xlink:href="#DejaVuSans-31"/>
       <use xlink:href="#DejaVuSans-30" x="63.623047"/>
      </g>
     </g>
    </g>
    <g id="ytick_4">
     <g id="line2d_10">
      <g>
       <use xlink:href="#m1ab267701b" x="57.6" y="188.784" style="stroke: #000000; stroke-width: 0.8"/>
      </g>
     </g>
     <g id="text_11">
      <!-- 15 -->
      <g transform="translate(37.875 192.583219)scale(0.1 -0.1)">
       <use xlink:href="#DejaVuSans-31"/>
       <use xlink:href="#DejaVuSans-35" x="63.623047"/>
      </g>
     </g>
    </g>
    <g id="ytick_5">
     <g id="line2d_11">
      <g>
       <use xlink:href="#m1ab267701b" x="57.6" y="149.184" style="stroke: #000000; stroke-width: 0.8"/>
      </g>
     </g>
     <g id="text_12">
      <!-- 20 -->
      <g transform="translate(37.875 152.983219)scale(0.1 -0.1)">
       <use xlink:href="#DejaVuSans-32"/>
       <use xlink:href="#DejaVuSans-30" x="63.623047"/>
      </g>
     </g>
    </g>
    <g id="ytick_6">
     <g id="line2d_12">
      <g>
       <use xlink:href="#m1ab267701b" x="57.6" y="109.584" style="stroke: #000000; stroke-width: 0.8"/>
      </g>
     </g>
     <g id="text_13">
      <!-- 25 -->
      <g transform="translate(37.875 113.383219)scale(0.1 -0.1)">
       <use xlink:href="#DejaVuSans-32"/>
       <use xlink:href="#DejaVuSans-35" x="63.623047"/>
      </g>
     </g>
    </g>
    <g id="ytick_7">
     <g id="line2d_13">
      <g>
       <use xlink:href="#m1ab267701b" x="57.6" y="69.984" style="stroke: #000000; stroke-width: 0.8"/>
      </g>
     </g>
     <g id="text_14">
      <!-- 30 -->
      <g transform="translate(37.875 73.783219)scale(0.1 -0.1)">
       <defs>
        <path id="DejaVuSans-33" d="M 2597 2516 
Q 3050 2419 3304 2112 
Q 3559 1806 3559 1356 
Q 3559 666 3084 287 
Q 2609 -91 1734 -91 
Q 1441 -91 1130 -33 
Q 819 25 488 141 
L 488 750 
Q 750 597 1062 519 
Q 1375 441 1716 441 
Q 2309 441 2620 675 
Q 2931 909 2931 1356 
Q 2931 1769 2642 2001 
Q 2353 2234 1838 2234 
L 1294 2234 
L 1294 2753 
L 1863 2753 
Q 2328 2753 2575 2939 
Q 2822 3125 2822 3475 
Q 2822 3834 2567 4026 
Q 2313 4219 1838 4219 
Q 1578 4219 1281 4162 
Q 984 4106 628 3988 
L 628 4550 
Q 988 4650 1302 4700 
Q 1616 4750 1894 4750 
Q 2613 4750 3031 4423 
Q 3450 4097 3450 3541 
Q 3450 3153 3228 2886 
Q 3006 2619 2597 2516 
z
" transform="scale(0.015625)"/>
       </defs>
       <use xlink:href="#DejaVuSans-33"/>
       <use xlink:href="#DejaVuSans-30" x="63.623047"/>
      </g>
     </g>
    </g>
    <g id="text_15">
     <!-- Size per Species -->
     <g transform="translate(31.795312 215.520969)rotate(-90)scale(0.1 -0.1)">
      <defs>
       <path id="DejaVuSans-53" d="M 3425 4513 
L 3425 3897 
Q 3066 4069 2747 4153 
Q 2428 4238 2131 4238 
Q 1616 4238 1336 4038 
Q 1056 3838 1056 3469 
Q 1056 3159 1242 3001 
Q 1428 2844 1947 2747 
L 2328 2669 
Q 3034 2534 3370 2195 
Q 3706 1856 3706 1288 
Q 3706 609 3251 259 
Q 2797 -91 1919 -91 
Q 1588 -91 1214 -16 
Q 841 59 441 206 
L 441 856 
Q 825 641 1194 531 
Q 1563 422 1919 422 
Q 2459 422 2753 634 
Q 3047 847 3047 1241 
Q 3047 1584 2836 1778 
Q 2625 1972 2144 2069 
L 1759 2144 
Q 1053 2284 737 2584 
Q 422 2884 422 3419 
Q 422 4038 858 4394 
Q 1294 4750 2059 4750 
Q 2388 4750 2728 4690 
Q 3069 4631 3425 4513 
z
" transform="scale(0.015625)"/>
       <path id="DejaVuSans-7a" d="M 353 3500 
L 3084 3500 
L 3084 2975 
L 922 459 
L 3084 459 
L 3084 0 
L 275 0 
L 275 525 
L 2438 3041 
L 353 3041 
L 353 3500 
z
" transform="scale(0.015625)"/>
       <path id="DejaVuSans-20" transform="scale(0.015625)"/>
       <path id="DejaVuSans-70" d="M 1159 525 
L 1159 -1331 
L 581 -1331 
L 581 3500 
L 1159 3500 
L 1159 2969 
Q 1341 3281 1617 3432 
Q 1894 3584 2278 3584 
Q 2916 3584 3314 3078 
Q 3713 2572 3713 1747 
Q 3713 922 3314 415 
Q 2916 -91 2278 -91 
Q 1894 -91 1617 61 
Q 1341 213 1159 525 
z
M 3116 1747 
Q 3116 2381 2855 2742 
Q 2594 3103 2138 3103 
Q 1681 3103 1420 2742 
Q 1159 2381 1159 1747 
Q 1159 1113 1420 752 
Q 1681 391 2138 391 
Q 2594 391 2855 752 
Q 3116 1113 3116 1747 
z
" transform="scale(0.015625)"/>
       <path id="DejaVuSans-63" d="M 3122 3366 
L 3122 2828 
Q 2878 2963 2633 3030 
Q 2388 3097 2138 3097 
Q 1578 3097 1268 2742 
Q 959 2388 959 1747 
Q 959 1106 1268 751 
Q 1578 397 2138 397 
Q 2388 397 2633 464 
Q 2878 531 3122 666 
L 3122 134 
Q 2881 22 2623 -34 
Q 2366 -91 2075 -91 
Q 1284 -91 818 406 
Q 353 903 353 1747 
Q 353 2603 823 3093 
Q 1294 3584 2113 3584 
Q 2378 3584 2631 3529 
Q 2884 3475 3122 3366 
z
" transform="scale(0.015625)"/>
      </defs>
      <use xlink:href="#DejaVuSans-53"/>
      <use xlink:href="#DejaVuSans-69" x="63.476562"/>
      <use xlink:href="#DejaVuSans-7a" x="91.259766"/>
      <use xlink:href="#DejaVuSans-65" x="143.75"/>
      <use xlink:href="#DejaVuSans-20" x="205.273438"/>
      <use xlink:href="#DejaVuSans-70" x="237.060547"/>
      <use xlink:href="#DejaVuSans-65" x="300.537109"/>
      <use xlink:href="#DejaVuSans-72" x="362.060547"/>
      <use xlink:href="#DejaVuSans-20" x="403.173828"/>
      <use xlink:href="#DejaVuSans-53" x="434.960938"/>
      <use xlink:href="#DejaVuSans-70" x="498.4375"/>
      <use xlink:href="#DejaVuSans-65" x="561.914062"/>
      <use xlink:href="#DejaVuSans-63" x="623.4375"/>
      <use xlink:href="#DejaVuSans-69" x="678.417969"/>
      <use xlink:href="#DejaVuSans-65" x="706.201172"/>
      <use xlink:href="#DejaVuSans-73" x="767.724609"/>
     </g>
    </g>
   </g>
   <g id="patch_3">
    <path d="M 57.6 307.584 
L 57.6 41.472 
" style="fill: none; stroke: #000000; stroke-width: 0.8; stroke-linejoin: miter; stroke-linecap: square"/>
   </g>
   <g id="patch_4">
    <path d="M 414.72 307.584 
L 414.72 41.472 
" style="fill: none; stroke: #000000; stroke-width: 0.8; stroke-linejoin: miter; stroke-linecap: square"/>
   </g>
   <g id="patch_5">
    <path d="M 57.6 307.584 
L 414.72 307.584 
" style="fill: none; stroke: #000000; stroke-width: 0.8; stroke-linejoin: miter; stroke-linecap: square"/>
   </g>
   <g id="patch_6">
    <path d="M 57.6 41.472 
L 414.72 41.472 
" style="fill: none; stroke: #000000; stroke-width: 0.8; stroke-linejoin: miter; stroke-linecap: square"/>
   </g>
   <g id="text_16">
    <!-- Speciation -->
    <g transform="translate(204.714375 35.472)scale(0.12 -0.12)">
     <use xlink:href="#DejaVuSans-53"/>
     <use xlink:href="#DejaVuSans-70" x="63.476562"/>
     <use xlink:href="#DejaVuSans-65" x="126.953125"/>
     <use xlink:href="#DejaVuSans-63" x="188.476562"/>
     <use xlink:href="#DejaVuSans-69" x="243.457031"/>
     <use xlink:href="#DejaVuSans-61" x="271.240234"/>
     <use xlink:href="#DejaVuSans-74" x="332.519531"/>
     <use xlink:href="#DejaVuSans-69" x="371.728516"/>
     <use xlink:href="#DejaVuSans-6f" x="399.511719"/>
     <use xlink:href="#DejaVuSans-6e" x="460.693359"/>
    </g>
   </g>
  </g>
 </g>
 <defs>
  <clipPath id="p03272f9278">
   <rect x="57.6" y="41.472" width="357.12" height="266.112"/>
  </clipPath>
 </defs>
</svg>
